<?xml version="1.0" encoding="UTF-8" standalone="no"?>
<svg
   viewBox="-0.5 -0.5 25 25"
   width="64"
   height="32"
   fill="none"
   version="1.1"
   id="svg10"
   xml:space="preserve"
   sodipodi:docname="favicon.svg"
   inkscape:version="1.2 (dc2aeda, 2022-05-15)"
   inkscape:export-filename="favicon.png"
   inkscape:export-xdpi="96"
   inkscape:export-ydpi="96"
   xmlns:inkscape="http://www.inkscape.org/namespaces/inkscape"
   xmlns:sodipodi="http://sodipodi.sourceforge.net/DTD/sodipodi-0.dtd"
   xmlns:xlink="http://www.w3.org/1999/xlink"
   xmlns="http://www.w3.org/2000/svg"
   xmlns:svg="http://www.w3.org/2000/svg"><sodipodi:namedview
     id="namedview3594"
     pagecolor="#505050"
     bordercolor="#eeeeee"
     borderopacity="1"
     inkscape:showpageshadow="0"
     inkscape:pageopacity="0"
     inkscape:pagecheckerboard="0"
     inkscape:deskcolor="#505050"
     showgrid="false"
     inkscape:zoom="7.1531427"
     inkscape:cx="20.200911"
     inkscape:cy="19.501918"
     inkscape:window-width="1440"
     inkscape:window-height="847"
     inkscape:window-x="0"
     inkscape:window-y="25"
     inkscape:window-maximized="1"
     inkscape:current-layer="svg10" /><defs
     id="defs14"><linearGradient
       id="linearGradient8329"><stop
         style="stop-color:#2d2d91;stop-opacity:1;"
         offset="0"
         id="stop8325" /><stop
         style="stop-color:#eeeeff;stop-opacity:1;"
         offset="1"
         id="stop8327" /></linearGradient><radialGradient
       xlink:href="#linearGradient8329"
       id="radialGradient8339"
       cx="11.965935"
       cy="12.119367"
       fx="11.965935"
       fy="12.119367"
       r="11.231566"
       gradientTransform="matrix(1,0,0,0.99279477,0,0.08732281)"
       gradientUnits="userSpaceOnUse" /></defs><circle
     style="opacity:1;fill:#323280;fill-opacity:1;stroke-width:0.9009"
     id="path846"
     cx="-0.47049612"
     cy="11.948668"
     r="14.303211" /><g
     id="g852"
     transform="matrix(0.85070891,0,0,0.85070891,-0.138741,1.7543557)"><path
       id="path847"
       style="display:none;fill:#ffffff;fill-opacity:1;stroke-width:0.78125"
       d="M -0.39483062,0.63983163 A 11.360654,11.360654 0 0 0 -11.754999,12 11.360654,11.360654 0 0 0 -0.39483062,23.360168 11.360654,11.360654 0 0 0 10.966864,12 a 11.360654,11.360654 0 0 0 -0.0015,-0.07172 7.8795877,7.8795877 0 0 1 -6.4804078,3.425599 7.8795877,7.8795877 0 0 1 -7.8796388,-7.8796388 7.8795877,7.8795877 0 0 1 3.90014598,-6.79779047 11.360654,11.360654 0 0 0 -0.900268,-0.036621 z"
       inkscape:export-filename="favicon.png"
       inkscape:export-xdpi="211.25029"
       inkscape:export-ydpi="211.25029" /><path
       id="path4848"
       style="fill:#ffffff;fill-opacity:1;stroke-width:0.643864"
       d="M 3.3005239,2.4036707 A 2.4497843,2.4497843 0 0 1 0.9539423,4.7489944 2.4497843,2.4497843 0 0 1 3.2904627,7.1521652 2.4497843,2.4497843 0 0 1 5.6081205,4.7313888 2.4497843,2.4497843 0 0 1 3.3005239,2.4036707 Z" /><path
       id="path4848-9"
       style="fill:#ffffff;fill-opacity:1;stroke-width:0.411949"
       d="M 6.4262581,9.0569426 A 1.5673907,1.5673907 0 0 1 4.9248972,10.557499 1.5673907,1.5673907 0 0 1 6.4198208,12.095066 1.5673907,1.5673907 0 0 1 7.902676,10.546235 1.5673907,1.5673907 0 0 1 6.4262581,9.0569426 Z" /></g><path
     id="path347"
     style="fill:#ffffff;stroke-width:0.627669"
     d="M -0.47431171,0.54827881 A 11.395509,11.395509 0 0 0 -11.869575,11.943542 11.395509,11.395509 0 0 0 -0.47431171,23.338806 11.395509,11.395509 0 0 0 10.920952,11.943542 11.395509,11.395509 0 0 0 9.9245533,7.2865601 7.047616,7.047616 0 0 1 10.028313,8.4935303 7.047616,7.047616 0 0 1 2.9802783,15.541565 7.047616,7.047616 0 0 1 -4.0662307,8.4935303 7.047616,7.047616 0 0 1 2.9802783,1.4454956 7.047616,7.047616 0 0 1 4.1964043,1.5507812 11.395509,11.395509 0 0 0 -0.47431171,0.54827881 Z" /></svg>
